<svg width="23" height="23" viewBox="0 0 37 37" fill="none" xmlns="http://www.w3.org/2000/svg">
<path fill-rule="evenodd" clip-rule="evenodd" d="M23.0674 29.1864C23.0677 29.956 22.777 30.6974 22.2536 31.2618C21.7303 31.8261 21.0129 32.1718 20.2454 32.2296L20.0166 32.2372H16.9658C16.1961 32.2374 15.4547 31.9467 14.8903 31.4234C14.326 30.9 13.9803 30.1827 13.9225 29.4152L13.9149 29.1864H23.0674ZM18.4912 3.25415C21.2598 3.2541 23.9202 4.32941 25.9112 6.25325C27.9022 8.17708 29.0681 10.799 29.163 13.566L29.1691 13.9321V19.6738L31.9485 25.2325C32.0698 25.475 32.1305 25.7433 32.1254 26.0145C32.1203 26.2856 32.0496 26.5514 31.9193 26.7893C31.7889 27.0271 31.6029 27.2298 31.3772 27.38C31.1514 27.5302 30.8926 27.6235 30.6229 27.6518L30.4474 27.6609H6.53491C6.26363 27.661 5.99638 27.5953 5.75606 27.4695C5.51573 27.3436 5.3095 27.1614 5.15503 26.9384C5.00057 26.7154 4.90247 26.4583 4.86915 26.1891C4.83583 25.9198 4.86828 25.6466 4.96372 25.3926L5.03389 25.2325L7.81321 19.6738V13.9321C7.81321 11.1001 8.93821 8.38416 10.9407 6.38165C12.9432 4.37915 15.6592 3.25415 18.4912 3.25415ZM18.4912 6.305C16.5257 6.30511 14.6362 7.06396 13.2166 8.42329C11.797 9.78262 10.957 11.6375 10.8717 13.6011L10.8641 13.9321V19.6738C10.8641 20.0521 10.7937 20.4272 10.6566 20.7797L10.5422 21.0391L8.75745 24.6101H28.2264L26.4417 21.0375C26.2724 20.6993 26.1674 20.3326 26.132 19.956L26.1183 19.6738V13.9321C26.1183 11.9093 25.3147 9.96929 23.8844 8.53893C22.454 7.10857 20.514 6.305 18.4912 6.305Z" fill="#062a41"/>
</svg>
