<svg
                width="15"
                height="15"
                viewBox="0 0 18 18"
                fill="none"
                xmlns="http://www.w3.org/2000/svg"
              >
                <path
                  d="M5.955 1.84062C5.74409 2.05158 5.62561 2.33768 5.62561 2.63599C5.62561 2.9343 5.74409 3.2204 5.955 3.43137L11.5237 9.00012L5.955 14.5689C5.75007 14.781 5.63668 15.0652 5.63924 15.3602C5.6418 15.6552 5.76012 15.9373 5.9687 16.1459C6.17729 16.3545 6.45945 16.4728 6.75442 16.4754C7.04939 16.4779 7.33357 16.3645 7.54575 16.1596L13.9099 9.79549C14.1208 9.58452 14.2393 9.29842 14.2393 9.00012C14.2393 8.70181 14.1208 8.41571 13.9099 8.20474L7.54575 1.84062C7.33478 1.62971 7.04868 1.51123 6.75037 1.51123C6.45206 1.51123 6.16597 1.62971 5.955 1.84062Z"
                  fill="#012561"
                />
              </svg>