  <svg
                width="15"
                height="15"
                viewBox="0 0 18 18"
                fill="none"
                xmlns="http://www.w3.org/2000/svg"
              >
                <path
                  d="M12.045 16.1594C12.2559 15.9484 12.3744 15.6623 12.3744 15.364C12.3744 15.0657 12.2559 14.7796 12.045 14.5686L6.47625 8.99988L12.045 3.43113C12.2499 3.21896 12.3633 2.93478 12.3608 2.63981C12.3582 2.34484 12.2399 2.06267 12.0313 1.85409C11.8227 1.6455 11.5405 1.52719 11.2456 1.52463C10.9506 1.52206 10.6664 1.63546 10.4543 1.84039L4.09013 8.20451C3.87922 8.41548 3.76074 8.70158 3.76074 8.99988C3.76074 9.29819 3.87922 9.58429 4.09013 9.79526L10.4543 16.1594C10.6652 16.3703 10.9513 16.4888 11.2496 16.4888C11.5479 16.4888 11.834 16.3703 12.045 16.1594Z"
                  fill="#012561"
                />
              </svg>