<svg width="20" height="20" viewBox="0 0 24 24" fill="none" xmlns="http://www.w3.org/2000/svg">
<path d="M10.7998 18.3008C10.7998 17.903 10.9578 17.5214 11.2391 17.2401C11.5204 16.9588 11.902 16.8008 12.2998 16.8008C12.6976 16.8008 13.0792 16.9588 13.3605 17.2401C13.6418 17.5214 13.7998 17.903 13.7998 18.3008C13.7998 18.6986 13.6418 19.0801 13.3605 19.3614C13.0792 19.6427 12.6976 19.8008 12.2998 19.8008C11.902 19.8008 11.5204 19.6427 11.2391 19.3614C10.9578 19.0801 10.7998 18.6986 10.7998 18.3008ZM10.7998 12.3008C10.7998 11.903 10.9578 11.5214 11.2391 11.2401C11.5204 10.9588 11.902 10.8008 12.2998 10.8008C12.6976 10.8008 13.0792 10.9588 13.3605 11.2401C13.6418 11.5214 13.7998 11.903 13.7998 12.3008C13.7998 12.6986 13.6418 13.0801 13.3605 13.3614C13.0792 13.6427 12.6976 13.8008 12.2998 13.8008C11.902 13.8008 11.5204 13.6427 11.2391 13.3614C10.9578 13.0801 10.7998 12.6986 10.7998 12.3008ZM10.7998 6.30078C10.7998 5.90296 10.9578 5.52143 11.2391 5.24012C11.5204 4.95882 11.902 4.80078 12.2998 4.80078C12.6976 4.80078 13.0792 4.95882 13.3605 5.24012C13.6418 5.52143 13.7998 5.90296 13.7998 6.30078C13.7998 6.69861 13.6418 7.08014 13.3605 7.36144C13.0792 7.64275 12.6976 7.80078 12.2998 7.80078C11.902 7.80078 11.5204 7.64275 11.2391 7.36144C10.9578 7.08014 10.7998 6.69861 10.7998 6.30078Z" fill="#000000"/>
</svg>
