<svg width="17" height="17" viewBox="0 0 24 24" fill="none" xmlns="http://www.w3.org/2000/svg">
<path d="M22.7084 23.7201C23.3218 24.3334 24.2684 23.3867 23.6551 22.7867L18.6551 17.7734C20.409 15.8328 21.3785 13.3092 21.3751 10.6934C21.3751 4.84008 16.6151 0.0800781 10.7618 0.0800781C4.90844 0.0800781 0.148438 4.84008 0.148438 10.6934C0.148438 16.5467 4.90844 21.3067 10.7618 21.3067C13.4018 21.3067 15.8418 20.3334 17.7084 18.7201L22.7084 23.7201ZM1.48044 10.6934C1.48044 5.57341 5.65377 1.41341 10.7604 1.41341C15.8804 1.41341 20.0404 5.57341 20.0404 10.6934C20.0404 15.8134 15.8804 19.9734 10.7604 19.9734C5.65377 19.9734 1.48044 15.8134 1.48044 10.6934Z" fill="#A9A9A9"/>
</svg>
