 <svg
                  width="24"
                  height="24"
                  viewBox="0 0 24 24"
                  fill="none"
                  xmlns="http://www.w3.org/2000/svg"
                >
                  <path
                    d="M15.5 12C15.5 12.4596 15.4095 12.9148 15.2336 13.3394C15.0577 13.764 14.7999 14.1499 14.4749 14.4749C14.1499 14.7999 13.764 15.0577 13.3394 15.2336C12.9148 15.4095 12.4596 15.5 12 15.5C11.5404 15.5 11.0852 15.4095 10.6606 15.2336C10.236 15.0577 9.85013 14.7999 9.52513 14.4749C9.20012 14.1499 8.94231 13.764 8.76642 13.3394C8.59053 12.9148 8.5 12.4596 8.5 12C8.5 11.0717 8.86875 10.1815 9.52513 9.52513C10.1815 8.86875 11.0717 8.5 12 8.5C12.9283 8.5 13.8185 8.86875 14.4749 9.52513C15.1313 10.1815 15.5 11.0717 15.5 12Z"
                    fill="#062a41"

                  />
                  <path
                    d="M12 3.5C15.432 3.5 18.124 5.034 20.054 6.741C21.98 8.444 23.186 10.351 23.67 11.201C23.8101 11.444 23.8838 11.7195 23.8838 12C23.8838 12.2805 23.8101 12.556 23.67 12.799C23.186 13.649 21.98 15.556 20.054 17.26C18.125 18.966 15.432 20.5 12 20.5C8.56799 20.5 5.87599 18.966 3.94599 17.26C2.01999 15.558 0.813993 13.65 0.329993 12.8C0.189935 12.557 0.116211 12.2815 0.116211 12.001C0.116211 11.7205 0.189935 11.445 0.329993 11.202C0.813993 10.352 2.01999 8.445 3.94599 6.74C5.87499 5.034 8.56799 3.5 12 3.5ZM1.63299 11.945C1.62276 11.9616 1.61691 11.9805 1.61599 12C1.61699 12.02 1.62199 12.039 1.63299 12.056C2.07399 12.83 3.18399 14.583 4.93999 16.136C6.69099 17.685 9.04499 19 12 19C14.955 19 17.31 17.685 19.06 16.136C20.816 14.583 21.926 12.83 22.367 12.056C22.3776 12.0392 22.3834 12.0199 22.384 12C22.3834 11.9801 22.3776 11.9608 22.367 11.944C21.926 11.171 20.816 9.417 19.06 7.864C17.309 6.315 14.955 5 12 5C9.04499 5 6.68999 6.314 4.93999 7.865C3.18399 9.417 2.07399 11.171 1.63299 11.945Z"
                    fill="#062a41"

                  />
                </svg>