<svg width="14" height="16" viewBox="0 0 14 16" fill="none" xmlns="http://www.w3.org/2000/svg">
<path d="M8.46918 3.52934C8.6098 3.66979 8.80043 3.74868 8.99918 3.74868C9.19793 3.74868 9.38855 3.66979 9.52918 3.52934L10.2492 2.80934V12.9993C10.2492 13.1983 10.3282 13.389 10.4688 13.5297C10.6095 13.6703 10.8003 13.7493 10.9992 13.7493C11.1981 13.7493 11.3889 13.6703 11.5295 13.5297C11.6702 13.389 11.7492 13.1983 11.7492 12.9993V2.80934L12.4692 3.52934C12.5378 3.60303 12.6206 3.66213 12.7126 3.70312C12.8046 3.74411 12.904 3.76615 13.0047 3.76793C13.1054 3.76971 13.2054 3.75118 13.2988 3.71346C13.3922 3.67574 13.477 3.6196 13.5482 3.54838C13.6194 3.47716 13.6756 3.39233 13.7133 3.29894C13.751 3.20555 13.7695 3.10552 13.7678 3.00482C13.766 2.90411 13.7439 2.8048 13.703 2.7128C13.662 2.6208 13.6029 2.538 13.5292 2.46934L11.5292 0.46934C11.3886 0.328889 11.1979 0.25 10.9992 0.25C10.8004 0.25 10.6098 0.328889 10.4692 0.46934L8.46918 2.46934C8.32873 2.60997 8.24984 2.80059 8.24984 2.99934C8.24984 3.19809 8.32873 3.38871 8.46918 3.52934ZM3.74918 13.1893L4.46918 12.4693C4.53784 12.3957 4.62064 12.3366 4.71264 12.2956C4.80464 12.2546 4.90395 12.2325 5.00465 12.2307C5.10536 12.229 5.20539 12.2475 5.29877 12.2852C5.39216 12.3229 5.477 12.3791 5.54821 12.4503C5.61943 12.5215 5.67558 12.6064 5.7133 12.6997C5.75102 12.7931 5.76955 12.8932 5.76777 12.9939C5.76599 13.0946 5.74395 13.1939 5.70296 13.2859C5.66197 13.3779 5.60286 13.4607 5.52918 13.5293L3.52918 15.5293C3.38855 15.6698 3.19793 15.7487 2.99918 15.7487C2.80043 15.7487 2.6098 15.6698 2.46918 15.5293L0.469177 13.5293C0.39549 13.4607 0.336388 13.3779 0.295396 13.2859C0.254404 13.1939 0.232362 13.0946 0.230585 12.9939C0.228809 12.8932 0.247333 12.7931 0.285054 12.6997C0.322775 12.6064 0.37892 12.5215 0.450138 12.4503C0.521357 12.3791 0.606191 12.3229 0.699579 12.2852C0.792967 12.2475 0.892997 12.229 0.993699 12.2307C1.0944 12.2325 1.19372 12.2546 1.28571 12.2956C1.37771 12.3366 1.46052 12.3957 1.52918 12.4693L2.24918 13.1893V2.99934C2.24918 2.80043 2.32819 2.60966 2.46885 2.46901C2.6095 2.32836 2.80026 2.24934 2.99918 2.24934C3.19809 2.24934 3.38885 2.32836 3.52951 2.46901C3.67016 2.60966 3.74918 2.80043 3.74918 2.99934V13.1893Z" fill="#062a41" fill-opacity="0.5"/>
</svg>
