 <svg
        width="20"
        height="20"
        viewBox="0 0 18 16"
        fill="none"
        xmlns="http://www.w3.org/2000/svg"
      >
        <path
          d="M17.0625 5.53125C16.6233 4.49162 15.9865 3.54708 15.1875 2.75C14.3904 1.95099 13.4459 1.31423 12.4062 0.875C11.3262 0.417969 10.1816 0.1875 9 0.1875C7.81836 0.1875 6.67383 0.417969 5.59375 0.875C4.55412 1.31423 3.60958 1.95099 2.8125 2.75C2.01349 3.54708 1.37673 4.49162 0.9375 5.53125C0.480469 6.61133 0.25 7.75586 0.25 8.9375C0.25 11.5293 1.38867 13.9707 3.37305 15.6387L3.40625 15.666C3.51953 15.7598 3.66211 15.8125 3.80859 15.8125H14.1934C14.3398 15.8125 14.4824 15.7598 14.5957 15.666L14.6289 15.6387C16.6113 13.9707 17.75 11.5293 17.75 8.9375C17.75 7.75586 17.5176 6.61133 17.0625 5.53125ZM13.8711 14.3281H4.12891C3.37421 13.6476 2.77103 12.8161 2.35851 11.8874C1.94599 10.9587 1.73334 9.95368 1.73438 8.9375C1.73438 6.99609 2.49023 5.17188 3.86328 3.80078C5.23633 2.42773 7.06055 1.67188 9 1.67188C10.9414 1.67188 12.7656 2.42773 14.1367 3.80078C15.5098 5.17383 16.2656 6.99805 16.2656 8.9375C16.2656 11 15.3965 12.9512 13.8711 14.3281ZM11.1777 6.23242C11.1484 6.20334 11.1087 6.18703 11.0674 6.18703C11.0261 6.18703 10.9864 6.20334 10.957 6.23242L9.30664 7.88281C8.94141 7.78516 8.53711 7.87891 8.25 8.16602C8.14831 8.26752 8.06763 8.38807 8.01258 8.52079C7.95754 8.65351 7.9292 8.79577 7.9292 8.93945C7.9292 9.08313 7.95754 9.2254 8.01258 9.35812C8.06763 9.49083 8.14831 9.61139 8.25 9.71289C8.3515 9.81458 8.47206 9.89526 8.60477 9.95031C8.73749 10.0054 8.87976 10.0337 9.02344 10.0337C9.16712 10.0337 9.30938 10.0054 9.4421 9.95031C9.57482 9.89526 9.69537 9.81458 9.79688 9.71289C9.9329 9.57727 10.0307 9.40815 10.0804 9.22262C10.1302 9.03709 10.13 8.84172 10.0801 8.65625L11.7305 7.00586C11.791 6.94531 11.791 6.8457 11.7305 6.78516L11.1777 6.23242ZM8.57031 4.25H9.42969C9.51562 4.25 9.58594 4.17969 9.58594 4.09375V2.53125C9.58594 2.44531 9.51562 2.375 9.42969 2.375H8.57031C8.48438 2.375 8.41406 2.44531 8.41406 2.53125V4.09375C8.41406 4.17969 8.48438 4.25 8.57031 4.25ZM13.6484 8.50781V9.36719C13.6484 9.45312 13.7188 9.52344 13.8047 9.52344H15.3672C15.4531 9.52344 15.5234 9.45312 15.5234 9.36719V8.50781C15.5234 8.42188 15.4531 8.35156 15.3672 8.35156H13.8047C13.7188 8.35156 13.6484 8.42188 13.6484 8.50781ZM13.8965 4.65625L13.2891 4.04883C13.2597 4.01975 13.22 4.00344 13.1787 4.00344C13.1374 4.00344 13.0977 4.01975 13.0684 4.04883L11.9629 5.1543C11.9338 5.18366 11.9175 5.22332 11.9175 5.26465C11.9175 5.30598 11.9338 5.34563 11.9629 5.375L12.5703 5.98242C12.6309 6.04297 12.7305 6.04297 12.791 5.98242L13.8965 4.87695C13.957 4.81641 13.957 4.7168 13.8965 4.65625ZM4.93945 4.04883C4.91009 4.01975 4.87043 4.00344 4.8291 4.00344C4.78777 4.00344 4.74812 4.01975 4.71875 4.04883L4.11133 4.65625C4.08225 4.68562 4.06594 4.72527 4.06594 4.7666C4.06594 4.80793 4.08225 4.84759 4.11133 4.87695L5.2168 5.98242C5.27734 6.04297 5.37695 6.04297 5.4375 5.98242L6.04492 5.375C6.10547 5.31445 6.10547 5.21484 6.04492 5.1543L4.93945 4.04883ZM4.11719 8.35156H2.55469C2.46875 8.35156 2.39844 8.42188 2.39844 8.50781V9.36719C2.39844 9.45312 2.46875 9.52344 2.55469 9.52344H4.11719C4.20312 9.52344 4.27344 9.45312 4.27344 9.36719V8.50781C4.27344 8.42188 4.20312 8.35156 4.11719 8.35156Z"
          fill="white"
        />
      </svg>