<svg xmlns="http://www.w3.org/2000/svg" version="1.1" xmlns:xlink="http://www.w3.org/1999/xlink" xmlns:svgjs="http://svgjs.dev/svgjs" width="2000" height="570" viewBox="0 0 2000 570"><g transform="matrix(1,0,0,1,-1.2121212121210192,-0.6642564019102224)"><svg viewBox="0 0 396 113" data-background-color="#e9efe7" preserveAspectRatio="xMidYMid meet" height="570" width="2000" xmlns="http://www.w3.org/2000/svg" xmlns:xlink="http://www.w3.org/1999/xlink"><g id="tight-bounds" transform="matrix(1,0,0,1,0.23999999999995225,0.13168591827343334)"><svg viewBox="0 0 395.52 112.73662816345315" height="112.73662816345315" width="395.52"><g><svg viewBox="0 0 600.255615712616 171.09322955000457" height="112.73662816345315" width="395.52"><g transform="matrix(1,0,0,1,204.735615712616,49.91996682835434)"><svg viewBox="0 0 395.52 71.25329589329588" height="71.25329589329588" width="395.52"><g id="textblocktransform"><svg viewBox="0 0 395.52 71.25329589329588" height="71.25329589329588" width="395.52" id="textblock"><g><svg viewBox="0 0 395.52 71.25329589329588" height="71.25329589329588" width="395.52"><g transform="matrix(1,0,0,1,0,0)"><svg width="395.52" viewBox="2.2 -38.38 278.19 50.120000000000005" height="71.25329589329588" data-palette-color="#062a41"><path d="M32.28-14.43L32.28-2.39Q31.69-1.98 30.19-1.26 28.69-0.54 26.05 0.02 23.41 0.59 19.43 0.59L19.43 0.59Q14.09 0.59 10.22-1.18 6.35-2.95 4.27-6.92 2.2-10.89 2.2-17.43L2.2-17.43Q2.2-26.15 6.67-30.87 11.13-35.6 19.12-35.6L19.12-35.6Q22.92-35.6 25.2-34.86 27.47-34.13 28.64-33.15 29.81-32.18 30.27-31.45L30.27-31.45Q30.44-31.18 30.52-30.97 30.59-30.76 30.62-30.32L30.62-30.32Q30.69-29.74 30.65-28.61 30.62-27.49 30.47-26.64L30.47-26.64Q30.37-26.1 30.15-25.93L30.15-25.93Q30.05-25.83 29.81-25.76 29.57-25.68 29.08-25.68L29.08-25.68Q28.3-25.68 27.26-25.74 26.22-25.81 25.73-25.88L25.73-25.88Q25.15-25.98 24.89-26.16 24.63-26.34 24.34-26.73L24.34-26.73Q24.05-27.12 23.54-27.65 23.02-28.17 21.98-28.59 20.95-29 19.12-29L19.12-29Q15.09-29 12.79-26.09 10.5-23.17 10.5-17.7L10.5-17.7Q10.5-11.96 12.88-8.98 15.26-6.01 19.73-6.01L19.73-6.01Q21.97-6.01 23.03-6.34 24.1-6.67 24.39-6.84L24.39-6.84 24.39-14.43Q24.39-15.14 24.63-15.5L24.63-15.5Q25.73-17.11 27.71-18.9L27.71-18.9Q28.08-19.19 28.34-19.19L28.34-19.19Q28.64-19.19 28.96-18.9L28.96-18.9Q30.03-17.97 30.76-17.13 31.49-16.28 32.03-15.5L32.03-15.5Q32.28-15.11 32.28-14.43L32.28-14.43ZM44.72 0.61L44.72 0.61Q41.14 0.61 39.02-1.4 36.91-3.42 36.91-6.96L36.91-6.96Q36.91-8.79 37.58-10.36 38.25-11.94 39.93-13.15 41.6-14.36 44.61-15.09 47.63-15.82 52.32-15.94L52.32-15.94Q52.32-18.16 51.21-19.14 50.1-20.12 47.87-20.12L47.87-20.12Q45.87-20.12 44.6-19.43 43.33-18.75 43.02-18.51L43.02-18.51Q42.67-18.21 42.19-18.29L42.19-18.29Q41.53-18.38 40.78-18.63 40.04-18.87 39.18-19.19L39.18-19.19Q39.06-19.24 38.91-19.35 38.77-19.46 38.74-19.68L38.74-19.68Q38.74-19.8 38.77-19.98 38.79-20.17 38.89-20.65L38.89-20.65Q38.99-21.14 39.18-21.86 39.38-22.58 39.55-22.97L39.55-22.97Q39.77-23.39 40.28-23.75L40.28-23.75Q40.7-24.1 42.8-24.85 44.89-25.61 48.87-25.61L48.87-25.61Q59.84-25.61 59.84-14.94L59.84-14.94 59.84-1.12Q59.84-0.66 59.58-0.33 59.32 0 58.71 0L58.71 0 55.05 0Q54.66 0 54.36-0.11 54.05-0.22 53.78-0.54L53.78-0.54 52.27-2.49 52.1-2.49Q50.97-0.85 49.08-0.12 47.19 0.61 44.72 0.61ZM47.41-5.05L47.41-5.05Q49.66-5.05 50.8-6.2 51.95-7.35 52.27-8.57L52.27-8.57 52.27-11.28Q48.87-11.28 47.18-10.75 45.48-10.23 44.92-9.39 44.36-8.54 44.36-7.57L44.36-7.57Q44.36-6.15 45.24-5.6 46.12-5.05 47.41-5.05ZM74.14-22.17L74.14-20.36 74.24-20.36Q76.07-25.44 80.83-25.44L80.83-25.44Q81.44-25.44 81.83-25.38 82.22-25.32 82.37-25.27L82.37-25.27Q82.73-25.15 82.73-24.71L82.73-24.71 82.73-18.82Q82.73-18.07 81.86-18.41L81.86-18.41Q81.56-18.53 81.01-18.66 80.46-18.8 79.49-18.8L79.49-18.8Q76.97-18.8 75.56-16.96 74.14-15.11 74.14-11.94L74.14-11.94 74.14-1.29Q74.14-0.56 73.84-0.28 73.53 0 72.8 0L72.8 0 67.77 0Q67.04 0 66.73-0.28 66.43-0.56 66.43-1.29L66.43-1.29 66.43-21.75Q66.43-22.34 66.67-22.66L66.67-22.66Q67.18-23.34 67.9-24.05 68.62-24.76 69.67-25.56L69.67-25.56Q69.87-25.71 70.06-25.76 70.26-25.81 70.41-25.81L70.41-25.81Q70.75-25.81 71.09-25.56L71.09-25.56Q73.12-23.97 73.92-22.85L73.92-22.85Q74.14-22.56 74.14-22.17L74.14-22.17ZM97.84 0.61L97.84 0.61Q94.69 0.61 92.55 0.15 90.4-0.32 88.93-1 87.47-1.68 86.37-2.37L86.37-2.37 86.37-34.33Q86.37-34.91 86.61-35.23L86.61-35.23Q87.64-36.57 89.62-38.13L89.62-38.13Q89.96-38.38 90.23-38.38L90.23-38.38Q90.54-38.38 90.84-38.13L90.84-38.13Q91.89-37.33 92.61-36.62 93.33-35.91 93.84-35.23L93.84-35.23Q94.08-34.91 94.08-34.33L94.08-34.33 94.08-22.49 94.18-22.49Q95.16-23.73 96.89-24.67 98.63-25.61 101.73-25.61L101.73-25.61Q105.19-25.61 107.44-24.01 109.68-22.41 110.78-19.62 111.88-16.82 111.88-13.21L111.88-13.21Q111.88-9.3 110.59-6.16 109.29-3.03 106.23-1.21 103.17 0.61 97.84 0.61ZM98.16-5.3L98.16-5.3Q100.99-5.3 102.48-7.19 103.97-9.08 103.97-12.6L103.97-12.6Q103.97-16.16 102.64-17.77 101.31-19.38 98.8-19.38L98.8-19.38Q96.77-19.38 95.71-18.55 94.65-17.72 94.08-16.46L94.08-16.46 94.08-6.37Q94.62-5.98 95.61-5.64 96.6-5.3 98.16-5.3ZM146.11-14.43L146.11-2.39Q145.52-1.98 144.02-1.26 142.52-0.54 139.88 0.02 137.25 0.59 133.27 0.59L133.27 0.59Q127.92 0.59 124.05-1.18 120.18-2.95 118.11-6.92 116.03-10.89 116.03-17.43L116.03-17.43Q116.03-26.15 120.5-30.87 124.97-35.6 132.95-35.6L132.95-35.6Q136.76-35.6 139.03-34.86 141.3-34.13 142.47-33.15 143.64-32.18 144.11-31.45L144.11-31.45Q144.28-31.18 144.35-30.97 144.42-30.76 144.45-30.32L144.45-30.32Q144.52-29.74 144.48-28.61 144.45-27.49 144.3-26.64L144.3-26.64Q144.2-26.1 143.98-25.93L143.98-25.93Q143.89-25.83 143.64-25.76 143.4-25.68 142.91-25.68L142.91-25.68Q142.13-25.68 141.09-25.74 140.05-25.81 139.57-25.88L139.57-25.88Q138.98-25.98 138.72-26.16 138.47-26.34 138.17-26.73L138.17-26.73Q137.88-27.12 137.37-27.65 136.86-28.17 135.82-28.59 134.78-29 132.95-29L132.95-29Q128.92-29 126.63-26.09 124.33-23.17 124.33-17.7L124.33-17.7Q124.33-11.96 126.71-8.98 129.09-6.01 133.56-6.01L133.56-6.01Q135.81-6.01 136.87-6.34 137.93-6.67 138.22-6.84L138.22-6.84 138.22-14.43Q138.22-15.14 138.47-15.5L138.47-15.5Q139.57-17.11 141.54-18.9L141.54-18.9Q141.91-19.19 142.18-19.19L142.18-19.19Q142.47-19.19 142.79-18.9L142.79-18.9Q143.86-17.97 144.59-17.13 145.33-16.28 145.86-15.5L145.86-15.5Q146.11-15.11 146.11-14.43L146.11-14.43ZM158.56 0.61L158.56 0.61Q154.97 0.61 152.86-1.4 150.74-3.42 150.74-6.96L150.74-6.96Q150.74-8.79 151.42-10.36 152.09-11.94 153.76-13.15 155.43-14.36 158.45-15.09 161.46-15.82 166.15-15.94L166.15-15.94Q166.15-18.16 165.04-19.14 163.93-20.12 161.71-20.12L161.71-20.12Q159.7-20.12 158.43-19.43 157.17-18.75 156.85-18.51L156.85-18.51Q156.51-18.21 156.02-18.29L156.02-18.29Q155.36-18.38 154.61-18.63 153.87-18.87 153.01-19.19L153.01-19.19Q152.89-19.24 152.75-19.35 152.6-19.46 152.58-19.68L152.58-19.68Q152.58-19.8 152.6-19.98 152.62-20.17 152.72-20.65L152.72-20.65Q152.82-21.14 153.01-21.86 153.21-22.58 153.38-22.97L153.38-22.97Q153.6-23.39 154.11-23.75L154.11-23.75Q154.53-24.1 156.63-24.85 158.73-25.61 162.71-25.61L162.71-25.61Q173.67-25.61 173.67-14.94L173.67-14.94 173.67-1.12Q173.67-0.66 173.41-0.33 173.16 0 172.55 0L172.55 0 168.88 0Q168.49 0 168.19-0.11 167.88-0.22 167.61-0.54L167.61-0.54 166.1-2.49 165.93-2.49Q164.81-0.85 162.91-0.12 161.02 0.61 158.56 0.61ZM161.24-5.05L161.24-5.05Q163.49-5.05 164.64-6.2 165.78-7.35 166.1-8.57L166.1-8.57 166.1-11.28Q162.71-11.28 161.01-10.75 159.31-10.23 158.75-9.39 158.19-8.54 158.19-7.57L158.19-7.57Q158.19-6.15 159.07-5.6 159.95-5.05 161.24-5.05ZM188.56-1.83L183.46 0.51Q182.94 0.73 182.72 0.73L182.72 0.73Q182.5 0.73 182.26 0.56L182.26 0.56Q181.7 0.17 180.98-1.35 180.26-2.88 180.26-6.05L180.26-6.05 180.26-34.33Q180.26-34.91 180.5-35.23L180.5-35.23Q181.53-36.57 183.51-38.13L183.51-38.13Q183.85-38.38 184.12-38.38L184.12-38.38Q184.43-38.38 184.73-38.13L184.73-38.13Q185.78-37.33 186.5-36.62 187.22-35.91 187.73-35.23L187.73-35.23Q187.97-34.91 187.97-34.33L187.97-34.33 187.97-7.54Q187.97-5.93 188.24-4.8 188.51-3.66 188.88-2.98L188.88-2.98Q189.29-2.17 188.56-1.83L188.56-1.83ZM202.96-1.83L197.86 0.51Q197.35 0.73 197.13 0.73L197.13 0.73Q196.91 0.73 196.66 0.56L196.66 0.56Q196.1 0.17 195.38-1.35 194.66-2.88 194.66-6.05L194.66-6.05 194.66-34.33Q194.66-34.91 194.9-35.23L194.9-35.23Q195.93-36.57 197.91-38.13L197.91-38.13Q198.25-38.38 198.52-38.38L198.52-38.38Q198.84-38.38 199.13-38.13L199.13-38.13Q200.18-37.33 200.9-36.62 201.62-35.91 202.13-35.23L202.13-35.23Q202.38-34.91 202.38-34.33L202.38-34.33 202.38-7.54Q202.38-5.93 202.64-4.8 202.91-3.66 203.28-2.98L203.28-2.98Q203.69-2.17 202.96-1.83L202.96-1.83ZM221.32 0.61L221.32 0.61Q217.19 0.61 214.14-0.72 211.09-2.05 209.4-4.86 207.72-7.67 207.72-12.11L207.72-12.11Q207.72-18.77 211.14-22.19 214.56-25.61 220.22-25.61L220.22-25.61Q223.91-25.61 226.46-24.29 229.01-22.97 230.34-20.65 231.67-18.33 231.67-15.36L231.67-15.36Q231.67-12.45 230.18-11.3 228.69-10.16 225.83-10.16L225.83-10.16 215.36-10.16Q215.56-7.64 217.2-6.32 218.85-5 221.68-5L221.68-5Q223.93-5 225.29-5.68 226.64-6.35 227.18-6.74L227.18-6.74Q227.64-7.08 228.23-7.06L228.23-7.06Q228.69-7.06 229.56-6.87 230.42-6.69 231.28-6.2L231.28-6.2Q231.89-5.88 231.89-5.32L231.89-5.32Q231.89-5 231.77-4.42L231.77-4.42Q231.69-4.08 231.52-3.43 231.35-2.78 231.08-2.22L231.08-2.22Q230.94-1.95 230.62-1.71L230.62-1.71Q230.13-1.37 229.04-0.81 227.96-0.24 226.08 0.18 224.2 0.61 221.32 0.61ZM215.31-15.16L215.31-15.16 223.27-15.16Q224.52-15.16 224.52-16.31L224.52-16.31Q224.52-18.04 223.43-19.23 222.34-20.41 220.17-20.41L220.17-20.41Q217.8-20.41 216.69-18.9 215.58-17.38 215.31-15.16ZM244.75-22.17L244.75-20.36 244.85-20.36Q246.68-25.44 251.44-25.44L251.44-25.44Q252.05-25.44 252.44-25.38 252.83-25.32 252.98-25.27L252.98-25.27Q253.35-25.15 253.35-24.71L253.35-24.71 253.35-18.82Q253.35-18.07 252.47-18.41L252.47-18.41Q252.17-18.53 251.63-18.66 251.08-18.8 250.1-18.8L250.1-18.8Q247.58-18.8 246.17-16.96 244.75-15.11 244.75-11.94L244.75-11.94 244.75-1.29Q244.75-0.56 244.45-0.28 244.14 0 243.41 0L243.41 0 238.38 0Q237.65 0 237.34-0.28 237.04-0.56 237.04-1.29L237.04-1.29 237.04-21.75Q237.04-22.34 237.28-22.66L237.28-22.66Q237.79-23.34 238.52-24.05 239.24-24.76 240.29-25.56L240.29-25.56Q240.48-25.71 240.68-25.76 240.87-25.81 241.02-25.81L241.02-25.81Q241.36-25.81 241.7-25.56L241.7-25.56Q243.73-23.97 244.53-22.85L244.53-22.85Q244.75-22.56 244.75-22.17L244.75-22.17ZM257.76 11.74L257.76 11.74Q256.86 11.74 256.4 11.56 255.93 11.38 255.61 11.11L255.61 11.11Q254.98 10.5 254.25 9.4L254.25 9.4Q254.08 9.13 253.88 8.78 253.69 8.42 253.69 8.18L253.69 8.18Q253.69 7.91 253.81 7.69 253.93 7.47 254.1 7.28L254.1 7.28Q254.49 6.76 255.05 6.21 255.61 5.66 256.01 5.35L256.01 5.35Q256.27 5.13 256.44 5.07 256.62 5 256.74 5L256.74 5Q256.86 5 257.1 5.05 257.35 5.1 257.84 5.1L257.84 5.1Q259.52 5.1 261.35 4 263.18 2.91 264.97-0.12L264.97-0.12Q263.11-1.83 261.32-4.41 259.52-6.98 258.08-10 256.64-13.01 255.77-16.02 254.91-19.02 254.91-21.56L254.91-21.56Q254.91-22.09 255.18-22.41L255.18-22.41Q256.3-23.8 258.37-25.32L258.37-25.32Q258.74-25.56 259.03-25.56L259.03-25.56Q259.35-25.56 259.69-25.32L259.69-25.32Q260.81-24.51 261.58-23.8 262.35-23.1 262.89-22.41L262.89-22.41Q263.16-22.09 263.16-21.51L263.16-21.51 263.16-21.61Q263.16-19.68 263.62-17.53 264.09-15.38 264.89-13.34 265.7-11.3 266.7-9.66 267.7-8.01 268.77-7.03L268.77-7.03 268.9-7.03Q269.38-7.96 269.98-9.7 270.58-11.45 271.12-13.59 271.65-15.72 272-17.83 272.34-19.95 272.34-21.58L272.34-21.58 272.34-21.51Q272.34-22.09 272.58-22.41L272.58-22.41Q273.14-23.1 273.9-23.8 274.66-24.51 275.73-25.32L275.73-25.32Q276.07-25.56 276.37-25.56L276.37-25.56Q276.71-25.56 277-25.32L277-25.32Q278.1-24.51 278.86-23.8 279.61-23.1 280.15-22.41L280.15-22.41Q280.39-22.09 280.39-21.53L280.39-21.53Q280.37-19.31 279.54-15.73 278.71-12.16 277.12-7.98 275.54-3.81 273.27 0.2L273.27 0.2Q269.87 6.23 265.94 8.98 262.01 11.74 257.76 11.74ZM280.39-21.58L280.39-21.58 280.39-21.51 280.39-21.53Q280.39-21.56 280.39-21.58ZM254.91-21.51L254.91-21.58 254.91-21.56 254.91-21.51Z" opacity="1" transform="matrix(1,0,0,1,0,0)" fill="#062a41" class="wordmark-text-0" data-fill-palette-color="primary" id="text-0"></path></svg></g></svg></g></svg></g></svg></g><g><svg viewBox="0 0 171.09322955000457 171.09322955000457" height="171.09322955000457" width="171.09322955000457"><g><svg></svg></g><g id="icon-0"><svg viewBox="0 0 171.09322955000457 171.09322955000457" height="171.09322955000457" width="171.09322955000457"><g><path d="M0 85.547c0-47.246 38.301-85.547 85.547-85.547 47.246 0 85.547 38.301 85.546 85.547 0 47.246-38.301 85.547-85.546 85.546-47.246 0-85.547-38.301-85.547-85.546zM85.547 164.668c43.697 0 79.121-35.424 79.121-79.121 0-43.697-35.424-79.121-79.121-79.121-43.697 0-79.121 35.424-79.121 79.121 0 43.697 35.424 79.121 79.121 79.121z" data-fill-palette-color="accent" fill="#062a41" stroke="transparent"></path><ellipse rx="84.69114862725226" ry="84.69114862725226" cx="85.54661477500228" cy="85.54661477500228" fill="#062a41" stroke="transparent" stroke-width="0" fill-opacity="1" data-fill-palette-color="accent"></ellipse></g><g transform="matrix(1,0,0,1,36.62013668117634,38.24163001323528)"><svg viewBox="0 0 97.85295618765188 94.609969523534" height="94.609969523534" width="97.85295618765188"><g><svg xmlns="http://www.w3.org/2000/svg" data-name="Layer 1" viewBox="0.8645301057625502 0.46971772107912196 97.48093978847493 94.25028227892088" x="0" y="0" height="94.609969523534" width="97.85295618765188" class="icon-dxe-0" data-fill-palette-color="quaternary" id="dxe-0"><path d="M77.32 17.4A1 1 0 0 0 76.32 16.74L62.64 10.43A14.74 14.74 0 0 0 55.51 2.09H55.45C49.65-1.5 43.99 1.98 43.75 2.09A14.63 14.63 0 0 0 36.63 10.43L22.72 16.81A1 1 0 0 0 22.19 17.39L0.92 78.46A1 1 0 0 0 1.59 79.75L13.87 83.3A1 1 0 0 0 15.08 82.71L25.29 57C25.29 72.3 25.24 86.51 25.24 86.66A1 1 0 0 0 26.24 87.66H27V93.72A1 1 0 0 0 28 94.72H71.17A1 1 0 0 0 72.17 93.72V87.71H73.17A1 1 0 0 0 74.17 86.71C74.17 86.47 74.17 71.71 74.12 57.54L84.12 82.71A1 1 0 0 0 85.33 83.3L97.62 79.75A1 1 0 0 0 98.29 78.46ZM60.88 11.4L60.94 11.64C60.94 11.82 61.04 12 61.08 12.19L62.23 17.13 61.66 17 61.43 16.93 61.03 16.82 60.73 16.74 60.35 16.65 60 16.54 59.61 16.46 59.24 16.39 58.82 16.32 58.43 16.26 58 16.19H57.63L56.8 16.12H54.31Q53.73 16.12 53.14 16.26H53L53.21 15.96 53.36 15.74C53.59 15.4 53.81 15.05 54 14.74L54.08 14.59Q54.35 14.09 54.57 13.59L54.65 13.41C54.81 13.05 54.94 12.69 55.07 12.32L55.14 12.1C55.26 11.75 55.36 11.4 55.45 11.05V10.99C55.54 10.62 55.62 10.26 55.69 9.9V9.67C55.75 9.32 55.81 8.98 55.85 8.67V8.54C55.85 8.23 55.92 7.93 55.94 7.63V4.9A12.5 12.5 0 0 1 60.87 11.41ZM55.76 87.7V92.76H53V87.71ZM60.51 87.7V92.76H57.75V87.71ZM65.26 87.7V92.76H62.5V87.71ZM51 92.77H48.25V87.71H51ZM36.75 87.71V92.77H34V87.71ZM38.75 87.71H41.5V92.77H38.75ZM43.5 87.71H46.25V92.77H43.5ZM48.12 15.44C47.94 15.22 47.78 15 47.62 14.77L47.4 14.46Q47.09 13.98 46.83 13.46C46.65 13.11 46.49 12.75 46.34 12.39L46.23 12.09C46.13 11.83 46.04 11.58 45.95 11.32S45.87 11.06 45.84 10.94 45.71 10.48 45.65 10.25L45.56 9.85Q45.49 9.51 45.43 9.18C45.43 9.05 45.43 8.92 45.37 8.8V8.71A9.4 9.4 0 0 1 53.97 8.71 13.28 13.28 0 0 1 50.14 16.55L50.01 16.67C49.9 16.77 49.78 16.86 49.66 16.96L49.39 16.74 49 16.37C48.81 16.18 48.63 15.99 48.46 15.8ZM54 3.54V6.52A11.3 11.3 0 0 0 45 6.52V3.56A9.4 9.4 0 0 1 54 3.54M43 4.82V7.54Q43 7.98 43.09 8.43V8.59C43.09 8.93 43.19 9.27 43.25 9.59V9.82C43.32 10.18 43.4 10.54 43.49 10.91 43.58 11.27 43.69 11.62 43.81 11.98L43.88 12.2C44.01 12.56 44.14 12.93 44.3 13.29L44.38 13.47Q44.6 13.97 44.87 14.47L44.95 14.63C45.15 14.98 45.36 15.33 45.59 15.63L46 16 46.21 16.31H46.11Q45.5 16.22 44.91 16.17H42.11C41.73 16.17 41.36 16.24 41 16.29 40.63 16.34 40.27 16.4 39.92 16.47H39.79C39.11 16.6 38.49 16.76 37.94 16.92H37.79L37.05 17.15 38.2 12.15A7 7 0 0 1 38.41 11.4 12.6 12.6 0 0 1 43.09 4.82ZM34.63 18.55A1 1 0 0 0 34.98 19.55 1 1 0 0 0 35.26 19.7H35.65A1 1 0 0 0 36.04 19.61H36.11A19.7 19.7 0 0 1 42.23 18.1H44.57L45.37 18.18H45.73L46.46 18.31 46.9 18.4 47.57 18.59 48.06 18.74 48.2 18.8A1 1 0 0 0 48.28 19 1 1 0 0 0 48.54 19.29H48.61V23.15H47.11A1 1 0 0 0 47.11 25.15H48.61V27.4H47.11A1 1 0 0 0 47.11 29.4H48.61V31.65H47.11A1 1 0 0 0 47.11 33.65H48.61V36H47.11A1 1 0 0 0 47.11 38H48.61V40.25H47.11A1 1 0 0 0 47.11 42.25H48.61V44.5H47.11A1 1 0 0 0 47.11 46.5H48.61V48.75H47.11A1 1 0 0 0 47.11 50.75H48.61V53H47.11A1 1 0 0 0 47.11 55H48.61V57.25H47.11A1 1 0 0 0 47.11 59.25H48.61V61.5H47.11A1 1 0 0 0 47.11 63.5H48.61V65.75H47.11A1 1 0 0 0 47.11 67.75H48.61V70H47.11A1 1 0 0 0 47.11 72H48.61V74.25H47.11A1 1 0 0 0 47.11 76.25H48.61V78.5H47.11A1 1 0 0 0 47.11 80.5H48.61V82.75H47.11A1 1 0 0 0 47.11 84.75H48.61V85.75H27.24C27.24 81.75 27.3 66.75 27.24 52.05V52A0.9 0.9 0 0 0 27.24 51.41C27.24 43.09 27.24 37.85 27.19 34.98 27.09 25.74 25.33 20.19 24.56 18.19L35.88 12.99ZM13.56 81.13L3.16 78.13 23.26 20.41A52.3 52.3 0 0 1 25.26 34.96C25.26 37.86 25.31 43.16 25.31 51.64ZM29 87.71H32V92.77H29ZM70.17 92.77H67.25V87.71H70.17ZM71.17 85.71H50.62V82.77H52.12A1 1 0 0 0 52.12 80.77H50.62V78.52H52.12A1 1 0 0 0 52.12 76.52H50.62V74.27H52.12A1 1 0 0 0 52.12 72.27H50.62V70H52.12A1 1 0 0 0 52.12 68H50.62V65.77H52.12A1 1 0 1 0 52.12 63.77H50.62V61.52H52.12A1 1 0 0 0 52.12 59.52H50.62V57.27H52.12A1 1 0 0 0 52.12 55.27H50.62V53H52.12A1 1 0 0 0 52.12 51H50.62V48.77H52.12A1 1 0 0 0 52.12 46.77H50.62V44.52H52.12A1 1 0 0 0 52.12 42.52H50.62V40.27H52.12A1 1 0 0 0 52.12 38.27H50.62V36H52.12A1 1 0 0 0 52.12 34H50.62V31.77H52.12A1 1 0 0 0 52.12 29.77H50.62V27.52H52.12A1 1 0 0 0 52.12 25.52H50.62V23.27H52.12A1 1 0 0 0 52.12 21.27H50.62V19.37H50.68A1 1 0 0 0 50.93 19.08 1 1 0 0 0 51.01 18.89L51.15 18.83 51.65 18.68 52.29 18.5 52.78 18.4 53.43 18.28 53.92 18.22 54.56 18.16H57.15L57.74 18.22 58.15 18.27 58.71 18.36 59.09 18.43 59.61 18.54 59.95 18.62 60.42 18.74 60.73 18.82 61.14 18.94 61.42 19.03 61.77 19.15 62.01 19.23 62.3 19.34 62.49 19.41 62.7 19.49 62.85 19.55H62.96L63.16 19.64A1 1 0 0 0 63.55 19.73H63.94A1 1 0 0 0 64.56 18.57L63.3 12.94 74.79 18.23C74 20.31 72.29 25.84 72.19 34.94 72.08 45.33 72.19 79.41 72.19 85.71ZM85.68 81.13L74.14 52.13C74.14 45 74.14 38.57 74.19 34.98A52 52 0 0 1 76.19 20.32L96.08 78.12Z" fill="#e9efe7" data-fill-palette-color="quaternary"></path></svg></g></svg></g></svg></g></svg></g></svg></g><defs></defs></svg><rect width="395.52" height="112.73662816345315" fill="none" stroke="none" visibility="hidden"></rect></g></svg></g></svg>